<svg width="118" height="118" viewBox="0 0 118 118" fill="none" xmlns="http://www.w3.org/2000/svg">
<path opacity="0.5" d="M4.17244e-06 59C4.17244e-06 42.5079 6.73622 27.6417 17.5374 16.9567C28.1063 6.38779 42.7402 -1.44222e-06 58.8839 -1.44222e-06C74.9114 -1.44222e-06 89.5453 6.50393 100.23 16.9567C111.031 27.6417 117.768 42.5079 117.768 59C117.768 91.6358 91.4035 118 58.8839 118C26.3642 118 4.17244e-06 91.5197 4.17244e-06 59Z" fill="url(#paint0_linear_13_2)"/>
<path d="M112.657 20.3248C115.287 20.3248 117.419 18.1929 117.419 15.563C117.419 12.9331 115.287 10.8012 112.657 10.8012C110.028 10.8012 107.896 12.9331 107.896 15.563C107.896 18.1929 110.028 20.3248 112.657 20.3248Z" fill="#E9BABB"/>
<path d="M103.387 6.94392C105.183 6.94392 106.639 5.48796 106.639 3.69195C106.639 1.89594 105.183 0.43998 103.387 0.43998C101.591 0.43998 100.135 1.89594 100.135 3.69195C100.135 5.48796 101.591 6.94392 103.387 6.94392Z" fill="#EAC0C1"/>
<path d="M7.67478 16.3071C9.47079 16.3071 10.9268 14.8512 10.9268 13.0551C10.9268 11.2591 9.47079 9.80317 7.67478 9.80317C5.87877 9.80317 4.42281 11.2591 4.42281 13.0551C4.42281 14.8512 5.87877 16.3071 7.67478 16.3071Z" fill="#E9BABB"/>
<path d="M4.2198 106.151C6.40611 106.151 8.17847 104.378 8.17847 102.192C8.17847 100.006 6.40611 98.2333 4.2198 98.2333C2.0335 98.2333 0.261143 100.006 0.261143 102.192C0.261143 104.378 2.0335 106.151 4.2198 106.151Z" fill="#E9BABB"/>
<path d="M96.7922 41.3825L61.9245 30.4469C60.0245 29.851 57.9745 29.851 56.0758 30.4469L21.2069 41.3825C18.2644 42.3051 18.2644 46.2774 21.2069 47.2L27.2857 49.1064C25.9519 50.7895 25.1319 52.8426 25.0506 55.091C23.8469 55.7953 22.9994 57.0663 22.9994 58.5835C22.9994 59.959 23.7094 61.1164 24.7319 61.8565L21.5406 76.5156C21.2631 77.7903 22.2131 79 23.4919 79H30.5057C31.7857 79 32.7357 77.7903 32.4582 76.5156L29.2669 61.8565C30.2894 61.1164 30.9994 59.959 30.9994 58.5835C30.9994 57.1071 30.1907 55.8719 29.0419 55.1548C29.1369 53.2382 30.0969 51.5436 31.6282 50.4692L56.0745 58.1369C57.207 58.4916 59.3795 58.9344 61.9233 58.1369L96.7922 47.2012C99.7359 46.2774 99.7359 42.3064 96.7922 41.3825ZM63.0983 62.0402C59.532 63.158 56.4933 62.5404 54.8995 62.0402L36.7719 56.3555L34.9994 70.8334C34.9994 75.3442 45.7445 79 58.9995 79C72.2546 79 82.9996 75.3442 82.9996 70.8334L81.2271 56.3542L63.0983 62.0402Z" fill="white"/>
<path opacity="0.8" d="M93.9501 68L69.8057 92.1444L75.308 97.6467L99.4524 73.5023L93.9501 68Z" fill="#C40E11"/>
<path opacity="0.8" d="M99.4524 92.1444L75.308 68L69.8057 73.5023L93.9501 97.6467L99.4524 92.1444Z" fill="#C40E11"/>
<defs>
<linearGradient id="paint0_linear_13_2" x1="9.35168" y1="84.0869" x2="114.52" y2="-57.289" gradientUnits="userSpaceOnUse">
<stop stop-color="#9D1114" stop-opacity="0"/>
<stop offset="1" stop-color="#C40F11"/>
</linearGradient>
</defs>
</svg>
